<?xml version="1.0" encoding="utf-8"?>
<!-- Generator: Adobe Illustrator 23.0.0, SVG Export Plug-In . SVG Version: 6.00 Build 0)  -->
<svg version="1.1" id="Layer_1" xmlns="http://www.w3.org/2000/svg" xmlns:xlink="http://www.w3.org/1999/xlink" x="0px" y="0px"
	 viewBox="0 0 752 768" style="enable-background:new 0 0 752 768;" xml:space="preserve">
<style type="text/css">
	.st0{opacity:0.5;}
	.st1{fill:#9E8395;}
	.st2{fill:#48287C;}
	.st3{fill:#6442A5;}
	.st4{fill:#FFFFFF;}
	.st5{fill:#7257C4;}
	.st6{fill:#EA3636;}
	.st7{fill:#F44945;}
	.st8{fill:#C41C18;}
	.st9{fill:#EA8B36;}
	.st10{fill:#FFB236;}
	.st11{fill:#75D1F9;}
	.st12{fill:#9FE6FF;}
	.st13{fill:#BBF1FF;}
	.st14{fill:#D8701A;}
	.st15{fill:#3A2934;}
	.st16{fill:#FFC9B6;}
	.st17{fill:#44323D;}
	.st18{fill:#FFB9A4;}
	.st19{fill:#391F6B;}
	.st20{fill:#FFD597;}
	.st21{fill:#4E3A45;}
	.st22{fill:#604A57;}
	.st23{fill:#39B6D8;}
</style>
<g>
	<g class="st0">
		<path class="st1" d="M81.55,565.71c-12.24,8.06-12.43,13.87,3.34,22.54c13.7,7.53,25.82,17.57,43.46,5.98
			c17.65-11.59,14.35-19.94-4.61-28.36C104.77,557.44,95.61,556.45,81.55,565.71z"/>
	</g>
	<g class="st0">
		<path class="st1" d="M726.58,540.74l-432.33-249.6c-12.77-7.37-32.26-8.18-43.31-1.8L8.53,429.31
			c-11.06,6.38-9.66,17.64,3.11,25.01L366.86,659.4c-11.59,9.35-33.1,29.1-46.48,44.44c-8.94,10.25-26.67,22.64-34.18,31.23
			c-9.8,11.21-14.48,28.3,5.09,32.42c18.65,3.93,46.75-15.33,73.91-34.55c24.05-17.02,46.82-38.27,53.85-43.4l24.91,14.38
			c12.77,7.37,32.26,8.18,43.31,1.8l242.42-139.96C740.75,559.37,739.35,548.11,726.58,540.74z"/>
	</g>
	<g class="st0">
		<path class="st1" d="M45.21,333.33c-8.05,5.01-26.39,13.54-35.08,22.42c-9.06,9.26,0.69,16.66,10.48,19.75
			c9.79,3.09,19.86-3.94,34.46,5.34c19.24,12.23,33.57,21.72,33.57,21.72l70.96-39.48c0,0-48.5-28.65-66.55-36.81
			C74.99,318.11,56.2,326.47,45.21,333.33z"/>
	</g>
	<g class="st0">
		<path class="st1" d="M508.23,332.95c7.54,4.7,24.72,12.68,32.86,21c8.48,8.67-0.65,15.61-9.82,18.5c-9.17,2.9-18.6-3.7-32.28,5
			c-18.02,11.46-31.44,20.35-31.44,20.35l-66.46-36.98c0,0,45.43-26.83,62.33-34.48C480.34,318.7,497.93,326.54,508.23,332.95z"/>
	</g>
	<g class="st0">
		<path class="st1" d="M644.44,432.39c7.54,4.7,24.72,12.68,32.86,21c8.48,8.67-0.65,15.61-9.82,18.5c-9.17,2.9-18.6-3.69-32.28,5
			c-18.02,11.46-31.44,20.35-31.44,20.35l-84.26-46.89c0,0,43.68-26.02,60.58-33.66C596.99,409.04,634.14,425.97,644.44,432.39z"/>
	</g>
	<g>
		<path class="st2" d="M752.33,168.23c0-54.36-33.05-117.5-73.82-141.04c-17.56-10.14-33.67-11.25-46.34-4.92l-0.01-0.02l-0.25,0.14
			c-1.04,0.53-2.06,1.1-3.05,1.73l-10.87,6.16l1.19,2.54c-9.09,11.11-14.48,28.25-14.48,50.18c0,54.36,33.05,117.5,73.82,141.04
			c12.41,7.16,24.09,9.81,34.35,8.52l1.22,2.6l10.32-5.98c1.67-0.8,3.27-1.74,4.82-2.8l0.1-0.06l0-0.01
			C743.48,216.56,752.33,196.33,752.33,168.23z"/>
		
			<ellipse transform="matrix(0.9202 -0.3916 0.3916 0.9202 1.4864 271.6945)" class="st3" cx="666.94" cy="132.2" rx="64.11" ry="113.32"/>
		
			<ellipse transform="matrix(0.9202 -0.3915 0.3915 0.9202 1.4861 271.693)" class="st4" cx="666.94" cy="132.2" rx="53.05" ry="93.76"/>
		<g>
			<polygon class="st3" points="700.78,177.02 612.27,125.92 612.27,97.81 700.78,148.91 			"/>
			<polygon class="st5" points="612.27,97.81 622.42,91.93 710.93,143.03 700.78,148.91 			"/>
			<polygon class="st2" points="700.78,148.91 710.93,143.03 710.93,171.14 700.78,177.02 			"/>
		</g>
		<g>
			<path class="st4" d="M701.95,64.04c-0.47-0.59-1.5,0.2-1.05,0.81c9.3,12.58,16.61,25.99,23.57,39.96
				c0.39,0.78,1.75,0.23,1.43-0.6C720.23,89.63,711.65,76.23,701.95,64.04z"/>
			<path class="st4" d="M729.05,113.06c-0.33-0.72-1.57-0.21-1.29,0.54c6.2,16.7,10.03,33.19,11.8,50.94c0.09,0.93,1.52,0.97,1.49,0
				C740.45,146.93,736.29,129.12,729.05,113.06z"/>
			<path class="st4" d="M739.75,175.31c-0.14,5.59-0.7,11.12-1.29,16.68c-0.09,0.9,1.44,1.12,1.59,0.22
				c0.93-5.58,1.17-11.25,1.11-16.89C741.16,174.4,739.78,174.4,739.75,175.31z"/>
			<path class="st2" d="M718.98,216.75c-1.03,1.59-1.88,3.26-3.05,4.76c-1.17,1.5-2.6,2.73-3.88,4.12c-0.78,0.85,0.2,2.16,1.24,1.6
				c3.39-1.83,6.46-6.08,7.09-9.89C720.52,216.51,719.47,215.99,718.98,216.75z"/>
			<path class="st2" d="M706.47,229.77c-2.35-1.35-4.45-2.63-5.52-5.29c-0.37-0.92-1.79-0.59-1.52,0.42c0.79,3,3,6.12,6.24,6.76
				C706.78,231.88,707.53,230.38,706.47,229.77z"/>
			<path class="st2" d="M695.43,231.04c-2.96,0.34-5.32,0.17-8.09-1c-0.76-0.32-1.64,0.56-0.95,1.23c2.46,2.38,6.42,3.1,9.57,1.75
				C696.91,232.6,696.44,230.92,695.43,231.04z"/>
		</g>
	</g>
	<g>
		
			<ellipse transform="matrix(0.3916 -0.9202 0.9202 0.3916 13.2627 312.0279)" class="st6" cx="242.57" cy="145.99" rx="110.23" ry="62.36"/>
		<polygon class="st6" points="301.45,53.26 287.66,45.44 193.15,243.94 207.97,252.54 		"/>
		
			<ellipse transform="matrix(0.3916 -0.9202 0.9202 0.3916 14.2154 326.2887)" class="st7" cx="253.83" cy="152.4" rx="110.23" ry="62.36"/>
		
			<ellipse transform="matrix(0.3915 -0.9202 0.9202 0.3915 14.2159 326.2896)" class="st4" cx="253.83" cy="152.4" rx="91.2" ry="51.6"/>
		<polygon class="st7" points="199,241.42 208.6,248.68 303.7,66.97 294.1,59.72 		"/>
		<g>
			<path class="st4" d="M272.41,49.25c-19.02,5.45-36.42,17.11-49.08,32.25c-0.58,0.69,0.38,1.7,1.01,1.01
				c13.63-14.9,29.49-25.04,48.5-31.7C273.81,50.47,273.42,48.96,272.41,49.25z"/>
			<path class="st4" d="M213.66,94.3c-7.22,8.99-12.92,19.55-16.2,30.63c-0.29,0.97,1.15,1.33,1.49,0.41
				c4.12-10.87,9.15-20.66,15.8-30.2C215.2,94.5,214.15,93.68,213.66,94.3z"/>
			<path class="st4" d="M189.56,230.38c-6.15-14.21-8.59-28.6-7.59-44.06c0.06-0.87-1.24-0.84-1.34,0
				c-1.81,15.41,0.81,30.89,7.49,44.9C188.58,232.21,189.97,231.35,189.56,230.38z"/>
			<path class="st8" d="M275.49,41.57c-12.04-2.92-25.49,3.2-35.21,9.8c-0.89,0.61-0.56,1.3,0.41,0.83
				c11.76-5.65,21.25-10.15,34.76-9.85C276.23,42.37,276.26,41.76,275.49,41.57z"/>
			<path class="st8" d="M197.76,96.47c-13.55,22.39-23.16,47.89-26.34,73.95c-0.12,0.96,0.69,1.02,0.88,0.07
				c5.1-26.08,13.1-50.27,26.11-73.56C198.86,96.13,198.23,95.69,197.76,96.47z"/>
			<path class="st8" d="M223.34,256.14c-11.97-2.02-22.48-6.85-31.99-14.42c-0.67-0.53-1.25-0.1-0.59,0.49
				c9.13,8.16,20.22,13.19,32.36,14.78C223.96,257.1,224.19,256.28,223.34,256.14z"/>
			<path class="st6" d="M297.39,56.5c-2.68-2.24-6.43-2.74-9.79-2.27c-0.88,0.12-0.66,1.55,0.21,1.53c3.16-0.06,5.63,0.93,8.47,2.17
				C297.14,58.32,298.26,57.23,297.39,56.5z"/>
			<path class="st6" d="M301.11,58.71c-1.73,0.72-3.41,1.42-5.18,2.04c-0.99,0.35-0.93,2.08,0.27,1.96c2.05-0.2,4.26-1.1,5.79-2.49
				C302.62,59.64,301.96,58.36,301.11,58.71z"/>
			<path class="st6" d="M303.8,63.9c-0.67-0.57-1.8,0.15-1.29,0.99c0.78,1.28,1.61,2.44,2.11,3.87c0.43,1.23,0.5,2.56,1.03,3.74
				c0.33,0.73,1.52,0.51,1.69-0.22C307.99,69.53,305.86,65.65,303.8,63.9z"/>
			<path class="st6" d="M207.64,242.84c-3.31-2.1-6.37-4.12-7.85-7.98c-0.42-1.09-2.14-0.66-1.78,0.49
				c1.28,4.07,4.36,8.47,8.82,9.42C207.99,245.02,208.67,243.5,207.64,242.84z"/>
			<path class="st6" d="M212.24,239.47c-0.2-0.71-1.42-0.82-1.55,0c-0.38,2.46-0.36,5.37,0.28,7.79c0.22,0.86,1.73,0.98,1.87,0
				C213.17,244.78,212.92,241.88,212.24,239.47z"/>
		</g>
	</g>
	<g>
		<g>
			<path class="st9" d="M171.88,113.82L110.66,7.94L98.99,1.12l-0.05,0.02C91.1-3.82,78.11,5.34,72.1,21.7L2.36,211.69
				c-4.91,13.37-2.61,24.52,3.56,28.12l-0.03,0.21l12.46,7.11l4.42-8.81l-2.15-1.16l136.25-78.66
				C170.73,150.49,179.19,125.3,171.88,113.82z"/>
			<path class="st10" d="M85.2,29.25L15.46,219.24c-7.31,19.92,1.15,35.34,15.02,27.34l139.49-80.53c13.86-8,22.33-33.2,15.02-44.68
				L115.24,11.91C108.32,1.05,92.12,10.41,85.2,29.25z"/>
			<g>
				<path class="st4" d="M29.34,237.19c-1.5,0-2.75-0.42-3.74-1.26c-3.17-2.66-2.92-9.05,0.73-18.99L93.24,35
					c3.19-7.85,7.74-12.55,12.48-12.91c3.09-0.16,5.79,1.39,7.67,4.56l63.67,100.53c2.56,4.01,3.21,9.02,1.87,14.49
					c-1.88,7.69-7.49,15.03-14.63,19.16L38.03,234.19C34.56,236.19,31.66,237.19,29.34,237.19z M96.18,36.17L29.3,218.03
					c-4.39,11.96-2.39,14.87-1.67,15.47c1.36,1.11,4.56,0.4,8.81-2.07l126.27-73.35c6.42-3.7,11.46-10.29,13.15-17.17
					c0.78-3.22,1.16-7.91-1.47-12.04l-63.7-100.57c-0.87-1.44-2.29-3.06-4.42-3.06c-0.1,0-0.21,0-0.32,0.01
					C103.3,25.46,99.34,28.43,96.18,36.17z"/>
			</g>
		</g>
		<g>
			<g>
				<path class="st11" d="M110.9,129.23l-0.02,0.04c-2.32-1.07-4.97-0.82-7.98,0.93c-3.65,2.11-6.76,5.63-9.34,10.57
					c-2.57,4.94-3.86,9.89-3.86,14.86c0,5.12,1.24,8.61,3.72,10.49l15.84,9.41l17.29-36.75L110.9,129.23z"/>
				<path class="st4" d="M128.16,139.46c-2.63-2.01-5.77-1.96-9.42,0.15c-3.65,2.11-6.76,5.63-9.34,10.57
					c-2.57,4.94-3.86,9.89-3.86,14.86c0,5.12,1.24,8.61,3.72,10.49c2.48,1.87,5.64,1.7,9.48-0.51c3.69-2.13,6.84-5.65,9.45-10.56
					c2.61-4.91,3.91-9.8,3.91-14.67C132.1,144.91,130.78,141.47,128.16,139.46z"/>
			</g>
			<g>
				<polygon class="st12" points="108.11,77.39 92.28,67.97 93.45,130.43 109.29,139.84 				"/>
				<polygon class="st13" points="129.53,65.02 113.69,55.61 92.28,67.97 108.11,77.39 				"/>
				<polygon class="st4" points="129.13,128.38 129.53,65.02 108.11,77.39 109.29,139.84 				"/>
			</g>
		</g>
		<g>
			<path class="st4" d="M92.06,15.66c-8.75,11.15-13.17,24.69-16.93,38.19c-0.28,1,1.24,1.41,1.55,0.43
				c4.19-13.32,8.24-26.3,16.43-37.81C93.55,15.85,92.53,15.06,92.06,15.66z"/>
			<path class="st4" d="M55.24,109.9c-6.07,13.81-11.45,28.37-15.82,42.81c-0.26,0.85,0.54,0.91,0.83,0.09
				c4.95-14.23,10.37-28.49,15.56-42.63C56.08,109.45,55.56,109.19,55.24,109.9z"/>
			<path class="st4" d="M35.96,162.32c-5.31,12.56-10.4,25.41-14.09,38.54c-0.27,0.96,0.65,1.05,0.96,0.11
				c4.28-12.9,8.93-25.72,13.88-38.39C36.98,161.88,36.26,161.62,35.96,162.32z"/>
		</g>
		<g>
			<path class="st14" d="M10.09,232.23c-0.99-1.61-2.41-2.83-3.27-4.56c-0.91-1.85-1.25-3.75-1.6-5.76
				c-0.19-1.12-1.74-0.72-1.84,0.25c-0.4,3.81,1.72,9.67,5.4,11.38C9.59,233.9,10.62,233.1,10.09,232.23z"/>
			<path class="st14" d="M14.67,210.17c-2.75,0.74-5.82,3.54-7.44,5.81c-0.54,0.75,0.51,1.74,1.25,1.25
				c1.29-0.84,2.44-1.85,3.69-2.75c1.17-0.83,2.53-1.51,3.53-2.53C16.45,211.19,15.7,209.89,14.67,210.17z"/>
			<path class="st14" d="M14.55,198.73c-3.02,1.29-6.01,4.75-5.41,8.21c0.12,0.73,1.35,0.91,1.65,0.21c0.53-1.24,0.8-2.57,1.46-3.76
				c0.75-1.36,1.84-2.42,3.12-3.28C16.25,199.54,15.49,198.33,14.55,198.73z"/>
			<path class="st14" d="M74.41,29.73c-0.39-1.14-2.08-0.69-1.81,0.5c0.6,2.66,0.49,5.2,0.58,7.89c0.04,1.13,1.74,1.44,2.02,0.27
				C75.89,35.57,75.33,32.42,74.41,29.73z"/>
			<path class="st14" d="M71.43,40.34c-1.19,0.82-1.77,2.31-2.34,3.6c-0.6,1.36-1.31,2.8-1.25,4.31c0.04,1.01,1.27,1.27,1.82,0.49
				c0.81-1.14,1.1-2.59,1.6-3.89c0.48-1.25,1.29-2.51,1.31-3.86C72.58,40.44,71.91,40.01,71.43,40.34z"/>
			<path class="st14" d="M84.63,17.02c-2.82,1.09-6.13,3.09-7.87,5.64c-0.52,0.77,0.47,1.51,1.17,1.17
				c1.34-0.64,2.49-1.66,3.71-2.51c1.25-0.86,2.51-1.66,3.71-2.59C86.11,18.15,85.73,16.59,84.63,17.02z"/>
		</g>
	</g>
	<g>
		<path class="st6" d="M564.97,99.16L453.62,34.87c-6.25-3.61-11.98-3.83-16.4-1.31l-0.01-0.01l-13.95,7.91l5.12,46.61
			c0,18.51,11.36,40.22,25.25,48.24l116,72.24l11.29-6.36c0.1-0.05,0.19-0.11,0.28-0.16l0.44-0.25c0,0,0-0.03,0-0.03
			c5.25-3.15,8.59-10.22,8.59-20.24V147.4C590.22,128.89,578.86,107.18,564.97,99.16z"/>
		<path class="st7" d="M440.45,143.85l111.35,64.29c13.89,8.02,25.25-0.57,25.25-19.09v-34.11c0-18.51-11.36-40.22-25.25-48.24
			L440.45,42.41c-13.89-8.02-25.25,0.57-25.25,19.09v34.11C415.2,114.12,426.56,135.83,440.45,143.85z"/>
		<g>
			<path class="st4" d="M445.38,74.25l11.71,6.76c7.1,4.1,12.62,9.89,12.62,18.6c0,4.09-1.72,7.46-4.51,7.25v0.28
				c3.49,3.23,6.19,8.22,6.19,14.31c0,9.28-5.88,10.04-13.33,5.74l-12.68-7.32V74.25z M456.73,99.08c3.75,2.16,5.41,1.01,5.41-2.31
				c0-3.51-1.76-5.89-5.36-7.97l-3.68-2.12v10.31L456.73,99.08z M457.43,118.87c4.22,2.43,6.39,1.69,6.39-2.46
				c0-4-2.14-6.87-6.39-9.32l-4.32-2.49v11.78L457.43,118.87z"/>
			<path class="st4" d="M483.53,96.27l9.26,5.34l10.74,51.82l-8.18-4.73l-4.48-25.69c-0.95-5.11-1.86-11.03-2.78-16.32l-0.21-0.12
				c-0.83,4.34-1.74,9.15-2.69,13.16l-4.49,20.51l-7.91-4.57L483.53,96.27z M479.87,120.9l16.46,9.5v8.01l-16.46-9.5V120.9z"/>
			<path class="st4" d="M506.82,109.72l7.92,4.57l8.92,27.84l3.38,11.97l0.21,0.12c-0.36-5.03-0.99-11.79-0.99-17.16v-16.12
				l7.37,4.25v45.62l-7.93-4.58l-8.92-27.9l-3.38-11.92l-0.21-0.12c0.37,5.24,0.99,11.71,0.99,17.09v16.19l-7.37-4.25V109.72z"/>
		</g>
		<g>
			<path class="st6" d="M433.21,114.69c-1.88,0.96-4.63,2.94-5.34,4.99c-0.29,0.83,0.7,1.39,1.38,1.06
				c0.99-0.49,1.64-1.43,2.44-2.19c0.87-0.82,1.82-1.54,2.68-2.36C435.19,115.42,434.15,114.21,433.21,114.69z"/>
			<path class="st6" d="M439.08,128.74c-1.39-2.05-3.47-3.63-5.3-5.27c-0.64-0.58-1.86,0.21-1.27,0.98
				c1.47,1.92,2.86,4.15,4.77,5.68C438.21,130.87,439.88,129.91,439.08,128.74z"/>
			<path class="st6" d="M567.49,177.61c-2.62,0.65-6.06,2.02-7.84,4.13c-0.76,0.9,0.17,2.07,1.23,1.59
				c1.26-0.58,2.35-1.53,3.56-2.22c1.22-0.69,2.49-1.25,3.75-1.84C569.15,178.82,568.46,177.37,567.49,177.61z"/>
			<path class="st6" d="M553.06,120.91c-0.75-0.44-1.38,0.4-1.09,1.09c0.54,1.28,1.53,2.36,2.34,3.49c0.77,1.08,1.44,2.19,2.35,3.16
				c0.65,0.68,1.96-0.02,1.63-0.95C557.43,125.28,555.3,122.22,553.06,120.91z"/>
			<path class="st6" d="M562.68,127.48c-0.97,0.92-1.83,1.96-2.77,2.91c-0.94,0.95-2.05,1.77-2.9,2.8c-0.77,0.94,0.21,2.56,1.39,1.8
				c2.23-1.43,4.43-4.09,5.74-6.38C564.68,127.68,563.45,126.75,562.68,127.48z"/>
			<path class="st6" d="M566.82,143.09c-1.15-2.47-2.36-4.91-3.5-7.38c-0.47-1.01-1.81-0.23-1.66,0.7c0.44,2.76,1.8,5.75,3.62,7.87
				C566.05,145.18,567.26,144.03,566.82,143.09z"/>
			<path class="st6" d="M433.19,45.92c-1.39,2.85-3.09,6.27-3.37,9.44c-0.1,1.11,1.44,1.33,1.96,0.53c1.67-2.56,2.43-6.32,3.06-9.28
				C435.03,45.67,433.66,44.95,433.19,45.92z"/>
			<path class="st6" d="M430.53,60.11c-2.28-1.32-4.31-2.61-5.82-4.83c-0.74-1.08-2.24-0.16-1.72,1.01
				c1.22,2.74,3.69,5.21,6.76,5.69C430.82,62.15,431.6,60.74,430.53,60.11z"/>
			<path class="st6" d="M444.9,53.02c-2.22-2.06-5.71-2.85-8.66-2.27c-0.9,0.18-0.95,1.74,0,1.87c1.33,0.18,2.66,0.29,3.96,0.64
				c1.29,0.35,2.53,0.9,3.79,1.32C444.88,54.87,445.58,53.64,444.9,53.02z"/>
			<path class="st6" d="M427.65,107.15c0.34-1.24-1.27-1.76-1.96-0.83c-1.93,2.63-2.02,6.4-0.71,9.28c0.42,0.92,2.06,0.49,1.94-0.53
				C426.59,112.23,426.91,109.9,427.65,107.15z"/>
			<path class="st6" d="M565.87,187.51c-0.37-0.89-1.98-0.93-1.87,0.25c0.16,1.68,0.54,3.33,0.76,5c0.21,1.66,0.13,3.41,0.59,5.02
				c0.25,0.88,1.61,0.94,1.84,0C567.91,194.78,567.05,190.32,565.87,187.51z"/>
			<path class="st6" d="M562.24,202.23c-1.26-1.57-2.73-2.84-3.77-4.58c-0.96-1.6-1.39-3.46-2.43-4.99
				c-0.3-0.45-1.15-0.46-1.26,0.17c-0.73,3.86,2.85,9.32,6.26,10.96C562.08,204.28,562.94,203.11,562.24,202.23z"/>
		</g>
		<g>
			<path class="st4" d="M561.07,113.95c-0.65-0.54-1.21,0.1-0.55,0.67c12.96,11.44,15.51,26.72,16.04,44.32
				c0.03,1.01,0.89,1.01,0.91,0.05C577.9,141.25,574.35,124.97,561.07,113.95z"/>
			<path class="st4" d="M554.66,108.32c-5.57-4.46-12.3-7.9-18.57-11.28c-0.77-0.42-1.13,0.33-0.36,0.77
				c6.24,3.54,12.23,7.81,18.48,11.27C554.93,109.47,555.35,108.87,554.66,108.32z"/>
			<path class="st8" d="M436.57,33.48c-7.63,3.97-17.51,8.05-20.52,16.83c-3.74,10.94-2.25,25.69-1.29,37
				c0.08,0.9,0.9,0.66,0.89-0.28c-0.17-9.56-0.77-19.23,0.04-28.79c0.65-7.64,3.4-12.99,9.75-17.34c3.66-2.52,7.63-4.61,11.53-6.74
				C437.78,33.72,437.37,33.06,436.57,33.48z"/>
			<path class="st8" d="M586.88,195.03c-7.63,9.33-23.14,19.36-34.94,12.97c-0.77-0.42-1.2,0.08-0.47,0.55
				c11.97,7.69,29.45-2.62,36.02-12.88C587.95,194.95,587.43,194.36,586.88,195.03z"/>
			<path class="st8" d="M490.42,55.53c-11.33-7.77-24.38-13.86-35.98-20.36c-0.75-0.42-1.1,0.23-0.35,0.66
				c11.61,6.6,23.6,14.89,35.71,20.55C490.7,56.79,491.22,56.08,490.42,55.53z"/>
			<path class="st4" d="M529.94,93.38c-9.89-6.18-19.97-11.9-30.21-17.47c-0.79-0.43-1.29,0.27-0.52,0.74
				c9.91,6.14,20.03,12.15,30.29,17.68C530.36,94.8,530.78,93.9,529.94,93.38z"/>
		</g>
	</g>
	<g>
		<g>
			<path class="st15" d="M127.34,314.96c-1.96-1.58-4.99-3.53-8.96-7.41c-1.82-3.44-4.56-10.68-7.75-13.79
				c-5.72,8.27-15.45,14.09-25.46,15.89c-0.43,3.36-0.03,7.04,0.03,10.02c0.17,9.28,1.54,18.15,9.84,21.55
				c2.38,3.01,5.54,5.44,9.04,7.18c3.95,1.97,7.34,3.78,10.89,6.42c1.48,1.1,2.91,1.99,4.63,2.67c4.28,1.7,8.22,0.67,12.59,1.24
				c5.42,0.71,11.02-5.14,11.01-11.9C143.19,344.04,139.9,325.07,127.34,314.96z"/>
			<g>
				<path class="st3" d="M25.1,363.08c-8.08,0.25-3.11-13.14-1.66-16.73c1.15-2.85,2.1-5.71,5.11-6.85
					c3.11-1.18,6.56-1.33,9.59-2.35c-1.11-1.1-2.1-2.3-2.81-3.59c-3.08-5.65-10.29-0.54-12.88,3.32c-2.6,3.86-3.7,8.83-6.91,13.85
					s-2.99,11.65,0.87,17.71c2.92,4.57,8.91,4.22,11.44-1.77c0.72-1.7,1.36-3.32,1.95-4.87C28.3,362.49,26.76,363.03,25.1,363.08z"
					/>
				<path class="st16" d="M38.33,352.2c2.73,3.07,8.62-8.94,8.62-8.94s-5.07-2.42-8.81-6.12c-3.03,1.02-6.48,1.17-9.59,2.35
					c-3.01,1.14-3.96,4-5.11,6.85c-1.45,3.59-6.42,16.98,1.66,16.73c1.66-0.05,3.19-0.59,4.7-1.28c1.51-3.93,2.72-7.36,4.02-9.9
					C34.34,350.9,35.61,349.13,38.33,352.2z"/>
			</g>
			<g>
				<path class="st3" d="M54.45,342.82c-8.08,0.25-3.11-13.14-1.66-16.73c1.15-2.85,2.1-5.71,5.11-6.85
					c3.11-1.18,6.56-1.33,9.59-2.35c-1.11-1.1-2.1-2.3-2.81-3.59c-3.08-5.65-10.28-0.54-12.88,3.32c-2.6,3.86-3.7,8.83-6.91,13.85
					c-3.22,5.02-2.99,11.65,0.87,17.71c2.92,4.57,8.91,4.22,11.44-1.77c0.72-1.7,1.36-3.32,1.95-4.87
					C57.64,342.23,56.1,342.77,54.45,342.82z"/>
				<path class="st16" d="M67.68,331.95c2.73,3.07,8.62-8.94,8.62-8.94s-5.07-2.42-8.81-6.12c-3.03,1.02-6.48,1.17-9.59,2.35
					c-3.01,1.14-3.96,4-5.11,6.85c-1.45,3.59-6.42,16.98,1.66,16.73c1.66-0.05,3.19-0.59,4.7-1.28c1.51-3.93,2.72-7.36,4.02-9.9
					C63.68,330.64,64.95,328.88,67.68,331.95z"/>
			</g>
			<path class="st17" d="M104.43,307.55c-4.01-24.01-25.01-10.85-35.85-10.78c-1.6,0.01-1.96,1.89-1.11,2.78
				c-5.09,9.34-12.66,23.54-9.96,34.34c0.56,2.22,5.64,6.86,5.86,7.25c0,6.27,2.65,14.46,2.53,18.31
				c-0.3,10.1,2.41,16.23,8.61,22.47c2.65,5.18,6.18,8.23,9.7,8.83c4.2,0.71,7.57-3.65,9.83-8.8c10.25-0.41,8.45-18.99,8.19-29.7
				c-0.19-7.65-2.27-13.78,0-21.42C103.71,325.92,106.65,320.84,104.43,307.55z"/>
			<path class="st18" d="M187.51,208.82c-8.75-8.37-9,7.26-11.53,10.9c-7.17,3.8-16.44,10.32-21.16,15.64
				c-3.28-3.4-14.4-5.35-19.15-5.35c-2.52-5.72-8.07-6.8-12.75-7.81c-12.23-2.64-23.4,8.38-23.4,8.38s2.26,12.56,3.08,12.68
				c0.81,0.12,19.42,6.37,28.39,6.85c8.97,0.48,19.17,0.83,26.15,0.34c4.12,0.35,23.23-20.66,28.34-26.16
				c7.18-0.01,17.49,0.34,13.79-12.45C197.79,206.69,195.24,203.57,187.51,208.82z"/>
			<path class="st3" d="M123.27,229.11c-6.97-8.84-10.39-9.52-18.84-4.69c-10.34,5.92-18.69,9.65-23.21,13.42
				c-7.68,6.38-12.13,19.54-13.44,36.08c-0.2,2.51-1.71,11.06-2.6,13.6c-3.18,9.04-1.63,10.52,0.63,12.63
				c-1.24,1.22-2.46,6.5,0.15,8.03c11.97,7.02,38.56,8.27,47.81-8.74c0.57-1.05-0.92-4.73-1.65-5.68c1.93-1.09,3.3-3.76,3.3-6.25
				c3.55-1.92,6.58-4.81,7.39-9.83c7.11-1.6,14.76-5.59,12.45-14.16c-1.13-4.18-6.81-13.89-7.81-18.78
				C125.61,235.89,125.26,231.64,123.27,229.11z"/>
			<path class="st18" d="M118.51,231.95c-1.95-0.32-7.03-2.91-5.51-12.34c0.43-2.64-11.45-9.74-11.44-9.36
				c0.12,8.55-1.21,18.31-5.13,22.74c5.65,5.9,11.41,24.64,21.08,22.59C122.81,254.45,122.35,242.83,118.51,231.95z"/>
			<path class="st16" d="M128.74,197.69c-8.05-1.81-12.25-2.14-19.4,0.75c-4.02,1.09-7.79,2.88-11.42,5.25
				c-0.27,0.18-0.5,0.58-0.44,0.91c1.84,10.6,5.39,21.83,17.29,26.54c9.78,3.87,15.27-6.87,16.97-14.06
				C133.72,208.7,134.32,198.94,128.74,197.69z"/>
			<path class="st15" d="M129.92,188.35c-1.05-2.82-2.82-5.48-4.58-7.35c-4.7-4.98-9.03-1.04-10.93,3.63
				c-2.82-3.39-6.86-6.61-11.61-4.45c-4.97,2.26-4.73,7.29-2.9,11.32c-5.19-1.98-12.23-4.87-15.41,0.87
				c-2.09,3.75,0.45,6.55,3.68,8.38c-6.18,1.04-14.02,4.38-12.14,10.24c1.13,3.52,6.28,5.54,9.59,5.78
				c7.21,0.53,12.14,3.15,15.07,5.43c2.02-2.08,10.77-7.38,12.87-20.21c4.17,0.9,11.56,1.57,16.91,0.94c4.37-3.19,4.79-5.94,5.8-8.4
				c0.96-2.35,2.04-6.34,0.58-8.66C134.75,182.54,131.77,185.1,129.92,188.35z"/>
			<path class="st16" d="M109.93,214.36c0,0-1.92-6.51-6.16-3.17s1.76,9.93,1.76,9.93L109.93,214.36z"/>
			<path class="st2" d="M108.64,286.25c0,0-9.59-3.11-14.77-2.49c-5.18,0.62-9.64,2.49-9.64,2.49s7.31,1.04,12.21,1.24
				C101.32,287.7,108.64,286.25,108.64,286.25z"/>
			<path class="st2" d="M104.43,297.97c-0.62,0-11.4-0.31-17.2-0.72c-5.8-0.41-8.08-0.7-8.08-0.7s4.77,3.6,11.5,3.6
				C97.39,300.15,104.43,297.97,104.43,297.97z"/>
			<path class="st16" d="M139.22,311.39c-6.14-7.74-9.92-4.6-13.95-4.72c-0.01,0.04-0.03,0.07-0.04,0.11
				c-7.1-5.76-17.95-12.37-25.71-14.79c-0.78-8.72-2.05-22.26-4.01-27.88c1.97-5.48,1.8-13.78-0.6-17.89
				c-1.97-3.37-9.94-8.24-15.76-2.01c-4.72,5.06-7.52,19.88-6.35,26.94c0.82,4.98,3.02,9.6,8.6,8.79c0.42,3.05,2.19,12.78,4.6,20.22
				c0.87,2.67,2.4,3.49,7.04,7.22c4.59,3.69,23.74,9.52,28.82,9.24c1.48,2.97,3.21,5.92,8.42,9.76c3.02,2.23,8.95-1.48,11.29-4.74
				C144.1,318.1,142.88,313.1,139.22,311.39z"/>
			<path class="st17" d="M42.59,340.72c0,0-7.05,7.1-4.26,11.48c2.79,4.38,11.63,12.18,17,17.66c5.36,5.48,15.63,11.45,22.25,16.67
				c6.62,5.23,9.64,1.41,9.64,1.41l5.82-9.38c0,0-14.12-19.84-14.66-20.64C77.84,357.12,61.68,345.9,42.59,340.72z"/>
			<g>
				<path class="st17" d="M147.48,161.32c-0.84-0.98-1.86-0.17-1.26,0.5c4.51,5.05,8.25,10.2,11.87,15.93
					c3.24,5.13,6.81,11.28,10.14,16.32c0.33,0.5,1.21,0.2,1.01-0.43C165.35,181.87,155.46,170.63,147.48,161.32z"/>
				<path class="st17" d="M158.38,162.86c-0.3-0.26-0.87,0.09-0.59,0.46c4.11,5.48,8.34,10.89,11.71,16.87
					c3.39,6.02,6.16,12.34,8.41,18.75c0.19,0.55,1.2,0.31,1.15-0.31C177.96,185.72,167.88,171.14,158.38,162.86z"/>
			</g>
		</g>
		<g>
			<path class="st18" d="M552.02,191.89c0,0-2.79-8.36-2.89-15.04c-0.1-6.84,2.94-10.2,6.6-10.59c10.65-1.14,10.22,8.71,10.22,8.71
				s7.42-0.19,2.48,11.11c-1.94,4.44-7.97,7.18-7.97,7.18L552.02,191.89z"/>
			<path class="st11" d="M569.01,246.89c-0.16-4.57-9.39-19.83-16.55-23.38c-7.73,0.5-8.04,6.19-14.61,11.17
				c1.6,7.58,5.95,17.13,11.83,22.66c1.75,11.09,13.48,32.15,19.26,32.45c4.92,0.26,9.03-1.3,10.36-4.99
				c2.48-6.88,7.34-18.31,5.75-25.69C584.86,258.26,580.51,248.43,569.01,246.89z"/>
			<g>
				<path class="st19" d="M594.46,384.89c0.34-8.23,2.93-16.47,2.83-24.64c-0.05-4.06-1.6-7.59-5.22-9.66
					c-5.84-3.35-12.73-2.15-18.68-5.9c-5.07-3.19-8.7-6.19-14.92-4.58c-0.54,0.14-1.16,0.66-1.24,1.24
					c-0.11,0.79-0.3,1.49-0.46,2.21c-5.51,10.06-10.12,21.49-7.46,32.56c-5.75,18.31-8.74,37.9-4.63,56.89
					c1.08,5,2.89,12.18,8.77,13.53c3.43,0.79,6.48-0.69,7.99-3.47c10.76,2.5,22.17-9.43,28.04-17.01c3.18-4.1,6.13-8.39,6.37-13.71
					C596.26,403.29,594.08,394.08,594.46,384.89z"/>
				<path class="st15" d="M557.77,359.11C557.76,359.12,557.76,359.12,557.77,359.11C557.66,359.28,557.64,359.31,557.77,359.11z"/>
			</g>
			<path class="st15" d="M674.63,447.03c-0.69-4.65-2.99-12.82-5.8-17.73c0.48-2.21,1.72-4.86,0.12-8.92
				c-1.69-4.32-5.68-6.74-10.88-5.13c-7.38,2.29-9.96,6.02-9.92,6.14c-3.56,7.85,2.77,20.81,4.91,27.59
				c1.47,4.63,3.01,9.99,4.85,14.5c2.25,5.55,9.46,2.64,11.48,0.51C673.93,459.25,675.52,453.03,674.63,447.03z"/>
			<path class="st2" d="M662.41,427.94c-0.57-2.17-1.95-3.89-3.78-5.17c-2.9-2.05-6.07-2.59-9.32-2.99
				c-5.13,5.29-16.55,20.2-19.04,24c-1-3.78-0.23-32.13-9.92-43.1c2.25-4.69,8.13-19.68-5.21-36.68
				c-3.99-5.08-28.97-2.03-37.57-3.51c-3.64,10.18-11.99,30.78,1.18,45.14c5.07,20.74,12.85,38.61,22.02,52.62
				c5.27,8.06,10.39,14.22,13.68,16.85c6.21,4.97,10.98,0.88,16.36-1.49c7.96-3.51,15.68-7.81,22.73-21.31
				c4.94-9.46,5.7-15.18,9.15-21.38C662.7,429.95,662.68,428.96,662.41,427.94z"/>
			<path class="st12" d="M592.55,264.06c-6.39-2.2-10.54-3.69-22.48,9.39c-8.4,9.2-13.38,35.56-12.69,39.79
				c0.55,3.34,0.3,23.86-11.57,39.91c6.4,9.84,24.89,25.07,37.39,24.31c15.15-0.92,24.58-3.99,34.21-11.7
				c-0.65-3.98-4.08-11.7-0.86-19.83c5.55-14.01,10.37-23.01,13.29-38.28C634.5,283.32,606.73,268.94,592.55,264.06z"/>
			<path class="st18" d="M589.17,261.27c0,0-0.64,7.98-5.64,19.75c-0.82,8.53,2.48,14.39,11.58,7.86c9.1-6.53,18.2-15.75,18.2-15.75
				l-1.94-15.23L589.17,261.27z"/>
			<path class="st11" d="M612.66,268.06c-1.52,4.58-3.56,7.3-8.1,10.53c-6.17,4.38-9.12,3.29-14.69,4.15
				c-5.81,0.9-8.34,3.35-9.68,8.95c2.28-0.46,2.62-1.6,4.42,0.53c1.19,1.41,0.84,3.13,1.01,4.68c0.24,2.19,2.62,3.91,5.75,3.2
				c-1.34-6.23,12.08-10.11,15.45-11.36c3.08-1.14,7.58-5.01,8.41-8.75C616.4,274.7,615.76,269.93,612.66,268.06z"/>
			<path class="st11" d="M585.91,266.55c0,0-4.68,4.46-7.23,7.81c-2.55,3.35-2.18,7.13-4.35,8.78c-2.17,1.65-4.27,2.25-4.27,2.25
				s4.23,1.02,5.7,0.26c1.47-0.76,3.31-1.17,3.7-0.73c0.39,0.44,3.31,3.65,3.52,3.24c0.21-0.4,4.65-2.54,4.65-2.54
				s-2.36-3.9-1.23-8.57c1.13-4.67,2.96-7.54,2.96-7.54L585.91,266.55z"/>
			<path class="st16" d="M619.92,245.33c-0.04-6.61-16.82-15.16-23.48-14.18c-10.03,1.48-13.9,13.77-15.51,22.96
				c-1.7,9.66,2.3,22.96,17.05,18.42C609.94,268.85,619.99,258.2,619.92,245.33z"/>
			<path class="st15" d="M622.02,242.64c1.52-3.54,0.3-7.73-2.64-10.65c-2.7-2.68-6.41-3.78-10.02-4.52
				c-3.21-0.66-4.58-0.32-7.17-2.53c-2.77-2.36-1.99-3.32-3.07-6.44c-3.35-9.61-13.97-1.39-13.86,7.02
				c-1.01-0.43-2.12-0.47-3.28,0.27c-2.73,1.72-2.1,5.35-0.61,7.62c2.48,3.77,6.83,6.49,11.35,7.29c1.62,7.79,10.4,8.36,13.59,7.12
				c-1.27,5.62,1.9,15.41,6.16,19.28c2.64-2.97,11.37-6.4,12.95-14.72C626.01,249.22,624.84,244.62,622.02,242.64z"/>
			<path class="st16" d="M605.71,255.31c0,0,4.48-3.6,6.02,0.57c1.35,3.67-0.36,7.64-5.03,7.31
				C602.59,262.9,605.71,255.31,605.71,255.31z"/>
			<path class="st11" d="M662.69,236.43c-12.53,9.18-27,43.48-28.07,45.42c-7.5,0.07-18.83,4.01-25.31,21.96
				c-4.24,11.75-0.96,32.8,14.83,20.37c10.81-8.52,19.42-14.7,22.96-22.48c5.48-0.23,18.99-37.64,25.63-55.33
				C667.25,242.33,665.25,238.46,662.69,236.43z"/>
			<path class="st11" d="M551.36,189.73c0,0-8.49,9.96-10.26,19.04c-1.77,9.08-3.26,25.91-3.26,25.91s9.57,0.93,12.85,0
				c3.28-0.93,5.8-3.64,5.8-3.64s1.17-5.42,3.13-13.95c2.59-11.27,0.83-23.84,0.83-23.84L551.36,189.73z"/>
			<path class="st18" d="M657.59,244.49c0,0-1.96-8.29-0.6-13.69c1.36-5.4,6.53,0,6.53,0s2.91-7.59,6.95-5.57
				c4.04,2.02,11.89,5.57,8.53,13.13c-2.06,4.63-7.58,13.34-13.35,12.65C662.35,250.62,657.59,244.49,657.59,244.49z"/>
			<path class="st17" d="M599.25,187.21c-8.36-2.7-19.52-2.27-27.66,1.09c-0.43,0.18-0.44,0.93,0.12,0.9
				c4.55-0.26,9.04-1.03,13.62-1.11c4.6-0.08,9.11,0.64,13.69,0.79C600.02,188.91,600.15,187.5,599.25,187.21z"/>
			<path class="st17" d="M602.77,195.36c-9.08-2.31-23.1-2.68-31.11,2.95c-0.07,0.05-0.05,0.18,0.05,0.18
				c5.12-0.16,10.1-1.98,15.27-2.31c5.25-0.34,10.36,0.27,15.57,0.83C603.49,197.1,603.67,195.59,602.77,195.36z"/>
			<path class="st17" d="M706.69,253.02c-10.02-3.48-22.35-4.98-32.25-0.43c-0.28,0.13-0.06,0.5,0.19,0.46
				c11.07-1.71,20.92,0.26,31.89,1.21C707.27,254.32,707.32,253.24,706.69,253.02z"/>
			<path class="st17" d="M703.1,263.24c-8.61-3.42-18.72-3.19-27.48-0.48c-0.24,0.08-0.21,0.49,0.06,0.46
				c9.33-0.86,17.79,0.03,26.99,1.54C703.69,264.92,704.05,263.61,703.1,263.24z"/>
		</g>
		<g>
			<path class="st15" d="M425.57,309.51c1.96-1.58,4.99-3.53,8.96-7.41c1.82-3.44,4.56-10.68,7.75-13.79
				c5.72,8.27,15.45,14.09,25.46,15.89c0.43,3.36,0.03,7.04-0.03,10.02c-0.17,9.28-1.54,18.15-9.84,21.55
				c-2.38,3.01-5.54,5.44-9.04,7.18c-3.95,1.97-7.34,3.78-10.89,6.42c-1.48,1.1-2.91,1.99-4.63,2.67c-4.28,1.7-8.22,0.67-12.59,1.24
				c-5.42,0.71-11.02-5.14-11.01-11.9C409.73,338.59,413.01,319.61,425.57,309.51z"/>
			<g>
				<path class="st3" d="M527.81,357.62c8.08,0.25,3.11-13.14,1.66-16.73c-1.15-2.85-2.1-5.71-5.11-6.85
					c-3.11-1.18-6.56-1.33-9.59-2.35c1.11-1.1,2.1-2.3,2.81-3.59c3.08-5.65,10.28-0.54,12.88,3.32c2.6,3.86,3.7,8.83,6.91,13.85
					c3.22,5.02,2.99,11.65-0.87,17.71c-2.92,4.57-8.91,4.22-11.44-1.77c-0.72-1.7-1.36-3.32-1.95-4.87
					C524.61,357.03,526.15,357.57,527.81,357.62z"/>
				<path class="st16" d="M514.58,346.75c-2.73,3.07-8.62-8.94-8.62-8.94s5.07-2.42,8.81-6.12c3.03,1.02,6.48,1.17,9.59,2.35
					c3.01,1.14,3.96,4,5.11,6.85c1.45,3.59,6.42,16.98-1.66,16.73c-1.66-0.05-3.19-0.59-4.7-1.28c-1.51-3.93-2.72-7.36-4.02-9.9
					C518.58,345.44,517.31,343.68,514.58,346.75z"/>
			</g>
			<g>
				<path class="st3" d="M498.47,337.37c8.08,0.25,3.11-13.14,1.66-16.73c-1.15-2.85-2.1-5.71-5.11-6.85
					c-3.11-1.18-6.56-1.33-9.59-2.35c1.11-1.1,2.1-2.3,2.81-3.59c3.08-5.65,10.29-0.54,12.88,3.32c2.6,3.86,3.7,8.83,6.91,13.85
					c3.22,5.02,2.99,11.65-0.87,17.71c-2.92,4.57-8.91,4.22-11.44-1.77c-0.72-1.7-1.36-3.32-1.95-4.87
					C495.27,336.78,496.81,337.32,498.47,337.37z"/>
				<path class="st16" d="M485.24,326.5c-2.73,3.07-8.62-8.94-8.62-8.94s5.07-2.42,8.81-6.12c3.03,1.02,6.48,1.17,9.59,2.35
					c3.01,1.14,3.96,4,5.11,6.85c1.45,3.59,6.42,16.98-1.66,16.73c-1.66-0.05-3.19-0.59-4.7-1.28c-1.51-3.93-2.72-7.36-4.02-9.9
					C489.23,325.19,487.96,323.42,485.24,326.5z"/>
			</g>
			<path class="st17" d="M448.48,302.09c4.01-24.01,35.62-7.38,34.77-6.49c20.87,21.54,6.52,39.69,6.29,40.09
				c0,6.27-2.65,14.46-2.53,18.31c0.3,10.1-2.41,16.23-8.61,22.47c-2.65,5.18-6.18,8.23-9.7,8.83c-4.2,0.71-7.57-3.65-9.83-8.8
				c-10.25-0.41-8.45-18.99-8.19-29.7c0.19-7.65,2.27-13.78,0-21.42C449.21,320.47,446.26,315.39,448.48,302.09z"/>
			<path class="st17" d="M510.32,335.27c0,0,7.05,7.1,4.26,11.48c-2.79,4.38-11.63,12.18-17,17.66
				c-5.36,5.48-15.63,11.45-22.25,16.67c-6.62,5.23-9.64,1.41-9.64,1.41l-5.82-9.38c0,0,14.12-19.84,14.66-20.64
				C475.07,351.67,491.23,340.44,510.32,335.27z"/>
			<path class="st18" d="M428.95,219.75c0,0-6.8,8.65-9.82,20.05c-2.92,10.99-10.68,25.47-13.14,30.14
				c-5.88,5-16.36,8.54-21.86,12.02c-3.12-2.91-6.47-5.62-8.28-5.74c-3.96-0.27-4.39,2.6-6.53,4.03c-2.14,1.42-5.62,6.15-1.9,11.51
				c4.47,6.44,9.66,5.52,13.61,2.58c3.95-2.94,8.21-5.16,8.21-5.16l1.96,0c8.62-2.14,22.62-5.7,25.12-6.84
				c3.41-5.65,8.51-18.28,11.95-26.02c3.44-7.74,9.76-27.81,10.01-28.54C438.53,227.03,428.95,219.75,428.95,219.75z"/>
			<path class="st9" d="M433.63,220.51c0,0-6.14-1.67-10.48,4.57c-4.34,6.24-7.18,22.26-7.91,25.75c1.84,0,6.9,2.5,10.13,4.46
				c3.23,1.97,4.92,1.69,4.92,1.69l17.16-31.56L433.63,220.51z"/>
			<path class="st4" d="M416.03,246.94c0,0,6.78,0.69,9.51,3.89c2.73,3.21,3.23,4.46,3.23,4.46l-2.19,3.56c0,0-2.93-3.12-5.78-4.96
				c-2.8-1.81-6.09-2.24-6.09-2.24L416.03,246.94z"/>
			<path class="st10" d="M429.69,227.28c6.57-8.33,9.8-8.98,17.75-4.42c9.75,5.58,17.61,9.1,21.88,12.65
				c7.24,6.02,11.44,18.42,12.66,34.01c0.19,2.37,1.61,10.42,2.45,12.82c3,8.52,1.53,9.92-0.59,11.91c1.17,1.15,2.31,6.13-0.14,7.57
				c-11.28,6.62-36.34,7.79-45.06-8.24c-0.54-0.99,0.87-4.46,1.56-5.36c-1.82-1.03-3.11-3.55-3.11-5.89
				c-3.34-1.81-6.2-4.54-6.96-9.26c-6.7-1.51-13.91-5.27-11.73-13.35c1.06-3.94,6.42-13.09,7.37-17.7
				C427.48,233.66,427.81,229.66,429.69,227.28z"/>
			<path class="st18" d="M434.17,229.95c1.84-0.3,6.63-2.75,5.19-11.64c-0.4-2.49,10.79-9.18,10.78-8.83
				c-0.12,8.06,1.15,17.26,4.84,21.44c-5.32,5.56-10.59,19.98-19.7,18.05C430.29,247.91,430.55,240.21,434.17,229.95z"/>
			<path class="st20" d="M430.22,224c0,0-3.38,10.28-4.55,13.66c-1.17,3.38-3.38,9.75-3.38,9.75s3.51-1.69,5.33-0.78
				c1.82,0.91,4.42,3.64,5.98,4.03c1.56,0.39,3.59,0,3.59,0l1.1-4.29c0,0-3.26-0.91-3.39-6.37c-0.13-5.46,0.52-12.88,0.52-12.88
				L430.22,224z"/>
			<path class="st16" d="M424.53,197.66c7.58-1.7,11.55-2.02,18.29,0.71c3.79,1.02,7.35,2.71,10.77,4.95
				c0.26,0.17,0.47,0.54,0.42,0.86c-1.73,9.99-5.08,20.58-16.3,25.02c-9.22,3.65-14.39-6.47-16-13.25
				C419.84,208.04,419.27,198.84,424.53,197.66z"/>
			<path class="st15" d="M460.96,189.88c-2.73-10.06-8.97-15.12-13.33-10.64c-0.87-4.8-5.57-7.87-8.26-4.28
				c-2.17-5.2-7.75-3.88-10.78-1.5c-5.76,4.52-18.07,21.57-9.07,28.05c0.55,8.53,10.74,9.17,16.64,5.01
				c3.21,2.94,9.33,2.85,11.2-0.11c-0.03,5.07,2.74,10.44,3.84,14.97C454.99,219.01,464.95,204.61,460.96,189.88z"/>
			<path class="st16" d="M444.83,211.91c0,0,1.81-6.13,5.81-2.98c4,3.15-1.66,9.37-1.66,9.37L444.83,211.91z"/>
			<path class="st9" d="M443.48,281.14c0,0,9.04-2.93,13.92-2.34c4.88,0.59,9.08,2.34,9.08,2.34s-6.89,0.98-11.5,1.17
				C450.38,282.51,443.48,281.14,443.48,281.14z"/>
			<path class="st9" d="M447.45,292.19c0.59,0,10.74-0.29,16.21-0.68c5.47-0.39,7.62-0.66,7.62-0.66s-4.49,3.39-10.84,3.39
				C454.09,294.24,447.45,292.19,447.45,292.19z"/>
			<path class="st18" d="M486.95,292.74c-1.18-13.01-2.48-28.65-2.48-28.65s-11.04,0-16.58,5.58c0,0,1.78,11.19,3.28,23.07
				c-4.07,8.49-7.89,17.04-10.08,22.01c-2.9-1.7-5.65-3-7.09-2.83c-3.94,0.47-3.84,3.37-5.67,5.17c-1.84,1.79-4.38,7.08,0.26,11.66
				c5.58,5.5,10.99,6.19,14.33,2.57c1.56-1.69,3.53-3.87,5.19-5.72l0,0c0,0,0.02-0.02,0.02-0.02c1.88-2.1,9.78-12.9,13.14-19.77
				C484.54,299.06,487.5,298.8,486.95,292.74z"/>
			<path class="st9" d="M464.35,235.06c-6.23,4.74-7.93,14.81-4.35,24.58c3.58,9.77,8.6,16.38,8.6,16.38s7.79-2.07,16.5-2.7
				c2.33-11.47,2.34-23.3-2.34-31.11C478.08,234.4,468.71,231.74,464.35,235.06z"/>
			<path class="st20" d="M451.19,221.39c0,0,0.02,3.48-2.74,8.57c-2.76,5.09-8.06,11.62-11.08,14.2c-4.42,3.77-2.78,9.75-2.78,9.75
				s1.61-3.85,3.7-3.25c2.1,0.6,3.24,2.5,5.72,4.64c1.82-2.94,2.67-5.43,6.76-9.71c3.24-3.38,9.26-10.81,7.56-16.79
				C456.62,222.83,451.19,221.39,451.19,221.39z"/>
			<path class="st4" d="M466.94,273.58c0,0,3.85-2.47,9.45-3.27c5.6-0.8,9.26,0,9.26,0l-0.32,5.7c0,0-5.75-0.66-9.04,0
				c-3.29,0.66-7.14,2.7-7.14,2.7L466.94,273.58z"/>
			<g>
				<path class="st17" d="M404.65,198.04c-10.33-8.27-27.82-15.48-40.91-17.17c-0.36-0.05-0.49,0.52-0.18,0.68
					c6.93,3.5,14.55,5.61,21.67,8.75c6.32,2.79,12.29,6.51,18.79,8.83C404.61,199.33,405.15,198.44,404.65,198.04z"/>
				<path class="st17" d="M408.62,190.62c-9.01-7.99-21.71-14.03-33.41-16.73c-0.23-0.05-0.4,0.29-0.17,0.4
					c11.2,5.51,21.63,11.62,32.44,17.81C408.38,192.63,409.44,191.36,408.62,190.62z"/>
				<path class="st17" d="M404.42,207.29c-10.25-5.4-23.11-7.39-34.43-9.22c-1.12-0.18-1.63,1.48-0.48,1.73
					c11.48,2.52,22.75,6.96,34.26,9.01C404.65,208.97,405.32,207.76,404.42,207.29z"/>
			</g>
		</g>
		<g>
			<path class="st15" d="M725.56,546.57v-14.6l-9.8,0.93c-0.12-0.07-0.22-0.15-0.35-0.22L299.64,292.65
				c-12.28-7.09-31.02-7.87-41.65-1.73L30.41,422.32H17.69l0.03,13.07c-0.01,0.24,0,0.48,0,0.72v0.01h0
				c0.07,4.69,3.49,9.62,10.13,13.45l415.76,240.04c12.28,7.09,31.02,7.86,41.65,1.73l233.13-134.6
				C723.1,554.02,725.45,550.39,725.56,546.57z"/>
			<path class="st21" d="M718.4,542.16l-233.13,134.6c-10.63,6.14-29.38,5.36-41.65-1.73L27.85,434.99
				c-12.28-7.09-13.62-17.91-2.99-24.05l233.13-134.6c10.63-6.14,29.38-5.36,41.65,1.73l415.76,240.04
				C727.68,525.2,729.03,536.02,718.4,542.16z"/>
			<path class="st22" d="M711.02,540.53L483.05,672.62c-9.97,5.76-27.54,5.03-39.06-1.62L32.88,434.57
				c-11.51-6.65-12.77-16.79-2.8-22.55l227.97-132.09c9.97-5.76,27.55-5.03,39.06,1.62l411.11,236.42
				C719.73,524.62,720.99,534.77,711.02,540.53z"/>
			<path class="st4" d="M528.91,650.75c-18.05,10.53-38.9,25.55-61.68,28.09c-13.28,1.48-24.07-5.37-35.32-11.42
				c-9.67-5.2-19.02-11.07-28.83-15.99c-0.26-0.13-0.45,0.22-0.22,0.38c10.78,7.89,22.18,14.56,33.82,21.08
				c9.73,5.46,20,9.87,31.41,8.83c19.43-1.77,45-17.19,61.32-30.32C529.8,651.08,529.27,650.54,528.91,650.75z"/>
			<path class="st4" d="M108.89,481.78c-10.04-5.93-27.12-16.34-40.44-23.8c-14.59-8.17-28.09-16.61-42.78-24.6
				c-0.46-0.25-0.85,0.41-0.41,0.71c11.53,7.95,69,42.15,83.56,48.51C109.29,482.8,109.43,482.1,108.89,481.78z"/>
			<path class="st4" d="M390.92,644.13c-10.92-6.5-35.57-21.5-52.98-30.66c-1.6-0.84-1.85,0.25-0.59,0.93
				c17.62,9.4,35.42,21.53,53.23,30.42C391.18,645.11,391.57,644.52,390.92,644.13z"/>
			<path class="st15" d="M322.83,291.04c-11.49-8.7-33.91-23.17-50.61-20.4c-8.03,1.33-17.93,6.58-24.77,10.73
				c-7.67,4.65-14.78,8.31-22.18,13.46c-1.93,1.34-1.03,2,0.9,0.93c12.87-7.15,28.53-18.99,43.65-22.71
				c15.39-3.78,36.92,10.23,52.47,18.69C322.7,291.95,323.25,291.36,322.83,291.04z"/>
			<polygon class="st12" points="687.97,518.36 448.82,656.43 42.43,422.83 281.58,284.76 			"/>
			<g>
				<path class="st4" d="M164.63,338.24c-3.85,0-6.96,1.87-6.96,4.18c0,2.31,3.12,4.18,6.96,4.18c3.85,0,6.96-1.87,6.96-4.18
					C171.59,340.11,168.48,338.24,164.63,338.24z"/>
				<path class="st21" d="M587.57,601.77c-2.83,0-5.6-0.7-7.8-1.97c-2.73-1.58-4.3-3.91-4.3-6.41c0-2.25,1.28-4.28,3.52-5.57
					l14.82-8.56c1.73-1,3.93-1.52,6.37-1.52c2.83,0,5.6,0.7,7.8,1.97c2.73,1.58,4.3,3.91,4.3,6.4c0,2.25-1.28,4.28-3.52,5.57
					l-14.82,8.55C592.22,601.25,590.01,601.77,587.57,601.77z"/>
				<path class="st4" d="M607.11,588.85l-14.82,8.55c-2.78,1.6-7.68,1.4-10.88-0.45l0,0c-3.21-1.85-3.56-4.68-0.78-6.28l14.82-8.55
					c2.78-1.6,7.68-1.4,10.88,0.45h0C609.54,584.42,609.89,587.25,607.11,588.85z"/>
				<path class="st15" d="M703.69,531.73c-0.07-0.6-0.98-0.85-1.15-0.16c-0.51,2.19-0.89,5.28,0.78,7.05
					c0.56,0.6,1.4,0.08,1.48-0.61C705.03,536.03,703.92,533.74,703.69,531.73z"/>
				<path class="st15" d="M699.58,536.3c-0.93,0.24-1.74,0.72-2.64,1.04c-0.74,0.26-1.45,0.38-2.08,0.87
					c-0.19,0.15-0.22,0.35-0.07,0.54c1.49,1.89,4.81,0.76,6.02-0.85C701.41,537.09,700.43,536.08,699.58,536.3z"/>
				<path class="st15" d="M711.02,523.99c-0.1-0.2-0.4-0.23-0.54-0.07c-0.84,0.9-1.19,2.07-1.75,3.15c-0.62,1.2-1.43,2.25-1.93,3.5
					c-0.53,1.31,1.33,2.1,2.21,1.29C710.82,530.19,712.18,526.31,711.02,523.99z"/>
				<path class="st15" d="M475.1,667.09c-0.86-1.81-3.81-1.58-5.51-1.52c-2.08,0.07-4.49,0.26-6.15,1.62
					c-0.38,0.31-0.17,1.01,0.29,1.11c1.99,0.4,4.19-0.11,6.24-0.05c1.64,0.05,3.7,0.82,5.03-0.36
					C475.23,667.69,475.22,667.35,475.1,667.09z"/>
				<path class="st15" d="M482.47,656.94c-0.26-0.75-1.59-0.7-1.49,0.2c0.19,1.71,0.1,3.33-0.37,4.98
					c-0.44,1.56-1.37,2.79-1.97,4.26c-0.5,1.24,1.23,1.92,2.06,1.2C483.47,665.14,483.6,660.18,482.47,656.94z"/>
				<path class="st15" d="M455.45,659.92c-1.92-0.52-4.04,0.49-5.57,1.63c-1.32,0.98-3.46,2.77-2.85,4.6
					c0.16,0.49,0.63,0.77,1.14,0.65c1.5-0.37,2.16-2.22,3.27-3.23c1.28-1.18,2.89-1.8,4.2-2.91
					C455.91,660.44,455.75,660,455.45,659.92z"/>
				<path class="st15" d="M583.99,606.04c-1.79,0.04-3.52,0.56-5.32,0.52c-1.92-0.05-3.81-0.53-5.7-0.84
					c-0.64-0.1-1.12,0.59-0.64,1.11c2.88,3.11,9.08,3.82,12.41,1.02C585.45,607.25,584.86,606.03,583.99,606.04z"/>
				<path class="st15" d="M609.96,572.1c-0.25,0-0.41,0.28-0.29,0.5c0.74,1.32,2.03,2.26,2.81,3.6c0.69,1.2,0.84,2.65,2.04,3.42
					c0.37,0.24,0.99,0.1,1.19-0.31C616.99,576.55,612.69,572.1,609.96,572.1z"/>
				<path class="st15" d="M34.14,414.22c-2.7,0.69-5.71,5.04-4.25,7.74c0.28,0.51,1.12,0.66,1.51,0.19
					c0.85-1.02,0.88-2.31,1.38-3.52c0.54-1.3,1.35-2.44,1.89-3.73C34.83,414.55,34.58,414.1,34.14,414.22z"/>
				<path class="st15" d="M37.07,428.38c-0.32-1.24-0.3-2.85,0.04-4.08c0.12-0.45-0.4-0.66-0.71-0.41c-1.5,1.17-2.22,2.66-2.08,4.59
					c0.12,1.62,0.77,3.66,2.51,4.06c0.65,0.15,1.43-0.31,1.38-1.05C38.13,430.29,37.37,429.53,37.07,428.38z"/>
				<path class="st15" d="M46.61,432.13c-1.56-1.54-3.53-2.9-5.78-2.97c-0.25-0.01-0.48,0.32-0.31,0.55
					c1.21,1.61,2.81,2.86,4.15,4.37c1.35,1.52,2.16,3.66,3.78,4.88c0.65,0.49,1.45-0.19,1.49-0.86
					C50.1,435.88,48.1,433.6,46.61,432.13z"/>
			</g>
			<g>
				<path class="st7" d="M485.08,441.65l-166.34,96.04c-12.55,7.25-34.68,6.33-49.17-2.04l-95.98-55.41
					c-14.49-8.37-16.08-21.14-3.53-28.39l166.34-96.04c12.55-7.25,34.68-6.33,49.17,2.04l95.98,55.41
					C496.05,421.63,497.63,434.4,485.08,441.65z"/>
				<path class="st4" d="M297.4,544.57c-10.04,0-20.6-2.43-28.83-7.18l-95.98-55.41c-8.26-4.77-13.01-11.27-13.01-17.81
					c0-5.54,3.36-10.54,9.47-14.07l166.34-96.04c13.13-7.58,36.09-6.67,51.19,2.04l95.98,55.41c8.27,4.77,13.01,11.26,13.01,17.81
					c0,5.55-3.37,10.55-9.48,14.07l-166.34,96.04C313.78,542.88,305.77,544.57,297.4,544.57z M357.76,352.89
					c-7.64,0-14.91,1.53-20.34,4.66l-166.34,96.04c-4.81,2.78-7.46,6.54-7.46,10.58c0,5.07,4.01,10.29,10.99,14.32l95.98,55.41
					c13.97,8.06,35.13,8.98,47.15,2.04l166.34-96.04c4.81-2.78,7.46-6.53,7.46-10.57c0-5.07-4.01-10.29-10.99-14.32l-95.98-55.41
					C376.9,355.16,367.06,352.89,357.76,352.89z"/>
			</g>
			<g>
				<path class="st4" d="M226.66,442.82l8.86-5.12l31.96,6.93l13.49,3.42l0.23-0.13c-5.08-2.46-11.97-5.63-17.18-8.64l-15.61-9.01
					l8.24-4.76l44.19,25.51l-8.86,5.12l-32.01-6.96l-13.44-3.39l-0.23,0.13c5.28,2.58,11.9,5.6,17.11,8.6l15.69,9.06l-8.24,4.76
					L226.66,442.82z"/>
				<path class="st4" d="M285.79,433.98c-14.44-8.33-15.66-17.19-5.35-23.14c10.31-5.95,25.71-5.22,40.08,3.09
					c14.44,8.34,16.04,17.41,5.73,23.37C315.95,443.24,300.22,442.31,285.79,433.98z M311.66,419.04
					c-8.86-5.12-17.38-6.23-22.59-3.22c-5.22,3.01-3.28,7.93,5.58,13.04c8.86,5.12,17.77,6.46,22.98,3.45
					C322.85,429.29,320.53,424.15,311.66,419.04z"/>
				<path class="st4" d="M320.08,398.56l-10.53,6.08l-8.38-4.84l29.7-17.15l8.38,4.84l-10.53,6.08l35.81,20.68l-8.65,4.99
					L320.08,398.56z"/>
				<path class="st4" d="M245.3,497.14l24.14-13.93l8.38,4.84l-15.49,8.94l10.25,5.91l13.23-7.64l8.38,4.84l-13.23,7.64l17.19,9.92
					l-8.64,4.99L245.3,497.14z"/>
				<path class="st4" d="M295.6,493.4c-14.44-8.33-15.66-17.19-5.35-23.14c10.31-5.95,25.71-5.22,40.09,3.09
					c14.44,8.34,16.04,17.41,5.72,23.37C325.75,502.67,310.03,501.74,295.6,493.4z M321.47,478.46c-8.86-5.11-17.38-6.23-22.6-3.22
					c-5.21,3.01-3.28,7.93,5.59,13.05c8.86,5.11,17.77,6.45,22.99,3.44C332.66,488.72,330.33,483.58,321.47,478.46z"/>
				<path class="st4" d="M339.16,470.34l-23.72-13.7l8.65-4.99l24.74,14.28c8.65,4.99,14,5.36,18.28,2.89
					c4.3-2.48,3.78-5.64-4.87-10.64l-24.74-14.28l8.33-4.81l23.72,13.69c14.83,8.57,16.07,15.3,6.18,21.02
					C365.84,479.52,354,478.9,339.16,470.34z"/>
				<path class="st4" d="M354.67,434l8.86-5.12l31.96,6.93l13.49,3.42l0.23-0.13c-5.08-2.46-11.97-5.63-17.18-8.64l-15.61-9.02
					l8.24-4.75l44.19,25.51l-8.86,5.11l-32.01-6.96l-13.44-3.39l-0.23,0.14c5.29,2.58,11.9,5.59,17.11,8.6l15.69,9.05l-8.24,4.76
					L354.67,434z"/>
				<path class="st4" d="M393.7,411.47l10.81-6.24c11.68-6.74,25.92-7.21,41.11,1.56c15.19,8.77,14.76,17.22,3.56,23.68l-11.3,6.52
					L393.7,411.47z M440.14,426.4c6.49-3.74,7.2-8.4-3.37-14.5c-10.56-6.1-18.24-5.47-24.73-1.73l-1.64,0.95l28.1,16.23
					L440.14,426.4z"/>
			</g>
			<g>
				<path class="st23" d="M141.88,450.41c-1.49-0.2-2.73,0.16-4.18,0.41c-1.62,0.28-3.22,0.36-4.83,0.74
					c-0.62,0.14-0.69,1.02-0.17,1.33c2.68,1.61,7.43,1.76,9.63-0.79C142.75,451.59,142.7,450.52,141.88,450.41z"/>
				<path class="st23" d="M661.08,514.16c-3.05-0.98-6.4,0.63-9.38,1.47c-3.37,0.95-7.08,1.71-9.97,3.74
					c-0.51,0.35-0.29,1.05,0.3,1.12c3.52,0.37,7.17-0.76,10.58-1.56c3.01-0.71,6.68-0.91,8.87-3.23
					C661.97,515.18,661.75,514.37,661.08,514.16z"/>
				<path class="st23" d="M458.71,637.98c-2.13-0.39-4.35,0.21-6.51,0.25c-2.44,0.04-4.85-0.33-7.29-0.41
					c-0.51-0.02-0.72,0.73-0.26,0.97c3.66,1.9,10.64,2.89,14.22,0.4C459.29,638.9,459.32,638.09,458.71,637.98z"/>
				<path class="st23" d="M465.36,630.43c-1.77-0.98-4.2-2.18-6.27-1.78c-0.22,0.04-0.23,0.31-0.12,0.45
					c1.24,1.55,3.43,2.49,5.04,3.64c1.65,1.18,3.19,3.13,5.23,3.58c0.71,0.16,1.38-0.45,1.18-1.18
					C469.83,632.87,467.28,631.49,465.36,630.43z"/>
				<path class="st23" d="M441.96,627.21c-3.02,3.15-5.24,9.46-4.57,13.79c0.15,0.94,1.49,0.77,1.73,0c0.7-2.19,0.75-4.55,1.4-6.78
					c0.65-2.21,1.75-4.24,2.44-6.43C443.14,627.22,442.37,626.78,441.96,627.21z"/>
				<path class="st23" d="M318.86,546.75c-2.71,0.13-5.23,1.59-7.92,2.1c-3.06,0.58-6.37,0.72-9.46,0.28
					c-0.28-0.04-0.58,0.17-0.48,0.48c0.78,2.59,5.09,2.31,7.25,2.24c3.61-0.13,8.77-0.76,11.21-3.68
					C319.88,547.66,319.64,546.71,318.86,546.75z"/>
				<path class="st23" d="M324.81,541.48c-0.27-0.32-0.81-0.05-0.81,0.33c0.02,2.47,0.6,4.85,0.44,7.34
					c-0.14,2.19-1.37,4.51-0.79,6.64c0.14,0.51,0.82,0.86,1.3,0.53c2.11-1.48,2.18-4.77,2.16-7.17
					C327.09,546.52,326.52,543.54,324.81,541.48z"/>
				<path class="st23" d="M502.97,426.06c-0.34-0.94-1.61-0.75-1.7,0.23c-0.24,2.51-0.18,4.93-0.78,7.4
					c-0.55,2.25-1.57,4.25-2.45,6.37c-0.68,1.64,1.82,2.44,2.71,1.14C503.46,437.22,504.61,430.66,502.97,426.06z"/>
				<path class="st23" d="M509.2,430.19c-1.15-0.74-2.67,0.75-1.9,1.9c0.99,1.47,2.16,2.8,3.04,4.35c0.86,1.5,1.41,2.9,2.59,4.19
					c0.47,0.51,1.54,0.3,1.66-0.44C515.19,436.44,512.28,432.17,509.2,430.19z"/>
				<path class="st23" d="M350.46,341c-4.93-3.66-13.66-1.61-18.47,1.31c-0.66,0.4-0.24,1.48,0.53,1.27c3.01-0.84,6-1.47,9.14-1.51
					c2.81-0.04,5.55,0.87,8.33,0.67C350.95,342.66,351.2,341.55,350.46,341z"/>
				<path class="st23" d="M346.01,334.46c-1.48-1.01-3.19-1.24-4.85-1.84c-1.73-0.63-3.34-1.5-5.05-2.16
					c-1.17-0.46-1.72,1.12-1.1,1.89c2.31,2.85,7.45,5.22,11,3.7C346.7,335.75,346.51,334.8,346.01,334.46z"/>
				<path class="st23" d="M70.78,414.19c-3.65,2.08-7.03,10.34-3.28,13.6c0.37,0.32,0.86,0.17,1.03-0.27
					c0.74-1.97,0.17-4.07,0.6-6.11c0.49-2.31,1.67-4.1,2.68-6.18C72.13,414.56,71.47,413.79,70.78,414.19z"/>
				<path class="st23" d="M75.26,419.54c-0.8-0.26-1.21,0.74-0.75,1.29c1.18,1.42,2.54,2.67,3.74,4.07
					c1.13,1.32,1.88,2.97,3.37,3.92c0.72,0.47,1.93-0.13,1.83-1.05C83.04,424.14,78.53,420.6,75.26,419.54z"/>
				<path class="st23" d="M156.58,458.9c-0.78-1.86-2.08-3.41-2.63-5.38c-0.62-2.24-0.07-4.17-0.03-6.4
					c0.01-0.72-1.01-1.23-1.51-0.62c-3,3.62-1.36,11.74,3.17,13.4C156.12,460.09,156.81,459.46,156.58,458.9z"/>
			</g>
		</g>
		<g>
			<path class="st16" d="M440.13,538.88c0,0-0.1-12.05,0-18.33c0.1-6.27,6.87-7.62,11.22-8.96c4.35-1.35,7.38,5.98,9.06,11.06
				c1.68,5.09-3.52,8.62-4.63,11.37c-1.12,2.75-6.13,11.21-6.13,11.21L440.13,538.88z"/>
			<path class="st15" d="M355.9,673.25c0,0-13.11,3.99-16.44,8.44c-3.33,4.45-4.94,7.99-5.59,13.47c-0.64,5.48,1.65,8.91,7.52,8.66
				c5.16-0.23,7.74-2.9,8.62-5.84c0,0,14.48-1.53,21.89-6.68C379.31,686.15,368.09,671.88,355.9,673.25z"/>
			<path class="st15" d="M394.66,604.9c-11.61-2.58-25.97,1.77-38.2,7.45c-0.29,0.02-0.59,0.09-0.89,0.24
				c-14.64,7.04-48.96,23.38-48.78,23.89c-5.41,11.52,2.79,29.36,17.98,27.43c7.77,4.77,16.58,5.25,24.57,2.26
				c-0.37,0.53-5.81,8.26-9.88,15.53c4.21,2.13,5.79,4.01,12.32,9.61c7.06-2.86,17.74-12.15,23.76-16.7
				c6-4.54,26.61-26.88,26.61-45.69C409.76,621.81,408.08,607.88,394.66,604.9z"/>
			<path class="st17" d="M397.04,686.47c-0.67-8.24-5.67-19.77-9.16-24.99c-9.21-13.76-12.75-22.71-22.61-29.02
				c-11.89-7.61-19.44,6.04-31.94,7.81c-0.12-0.07-13.05-5.17-13.96-5.65c0.22,0.39,0.36,19.49,5.4,29.3
				c2.9,5.64,10.74,10.64,22.31,10.96c4.69,8.06,12.02,13.8,14.09,14.82c-3.61,2.84-7.68,4.9-13.77,10.65
				c-8.77,8.27-19.63,17.52-30.24,24.7c2.69,1.5,5.27,3.9,6.34,5.34c1.62,2.17,2.69,4.09,3.27,7.67
				c19.85-4.54,35.59-14.93,51.9-26.43c5.87-4.14,9.06-8.38,13.23-13.54C399.92,696.78,399.56,688.83,397.04,686.47z"/>
			<path class="st2" d="M353.66,536.95c0,0-14.54-15.87-28.89,2.19c-4.43,5.58-5.01,10.16-6.28,13.22
				c-5.32,9.16-14,22.24-17.32,30.92c-1.38,3.61-0.55,9.24,0.56,10.73c2.2,2.96,26.19,12.16,33.84,3.77
				C350.97,580.89,353.66,536.95,353.66,536.95z"/>
			<g>
				<path class="st16" d="M377.65,544.46l-11.66,9.56c-6.29-2.24-11.08-9.67-13.77-16.78c2.3-1.84,10.46-6.51,11.03-8.97
					c-2.43-6.78,1.25-12.49,7.54-18.59c6.6-6.38,18.5-6.32,25.64-0.68c1.04,0.41,6.37,4.24,5.66,10.71
					c-0.8,7.22-4.92,24.55-11.05,27.68C386.76,549.56,381.77,546.02,377.65,544.46z"/>
				<path class="st15" d="M360.87,509.58c0.61-5.51,3.61-10.44,9.52-13.15c6.66-3.05,18.53-3.48,23.89,2.52
					c0.1-0.19,0.14-0.41,0.28-0.58c1.65-2.13,4.37-1.8,6.32-0.32c1.54,1.16,2.69,2.86,3.44,4.75c1.15-0.37,2.44-0.39,3.54,0.06
					c3.87,1.6,3.72,7.08,2.35,10.28c-2.83,6.64-13.31,13.9-21.03,12.09c0.39,3.87-1.5,5.96-4.6,8.49
					c-4.84,3.96-11.79,4.17-17.27,1.45c-6.2-3.07-11.84-10.18-11.4-17.41C356.11,514.36,358.07,511.17,360.87,509.58z"/>
				<path class="st16" d="M391.9,526.96c0,0-1.4-4.52-5.66-1.69c-4.26,2.83,0.84,11.26,0.84,11.26L391.9,526.96z"/>
			</g>
			<path class="st3" d="M349.21,534.31c7.15,3.09,6.65,4.39,21.52,15.83c14.87,11.44,15.64,18.17,14.28,25.25
				c-1.35,7.09-2.38,10.72-8.17,24.53c-7.37,17.59-16.8,27.15-16.8,27.15s5.07,1.56,7.35,2.98c2.29,1.42,2.85,9.25,0.29,11.66
				c-7.32,6.88-37.67,24.26-62.67-0.77c1.14-19.67,8.23-59.42,13.26-74.94C323.99,548.44,342.94,531.6,349.21,534.31z"/>
			<path class="st2" d="M358.3,631.3c0,0-9.26,5.04-17.8,7.3c-8.55,2.26-9.62,1.96-15.73,3.15c2.37,0,15.66,1.32,21.13-1.95
				C351.36,636.52,358.3,631.3,358.3,631.3z"/>
			<path class="st2" d="M329.28,627.23c0,0,4.93,4.07,12.26,3.35c7.33-0.71,11.96-1.6,11.96-1.6s-7.89-2.26-11.96-1.75
				C337.47,627.73,329.28,627.23,329.28,627.23z"/>
			<path class="st15" d="M327.35,717.52c0,0-10.78-0.75-15.19,0c-4.4,0.75-5.05,8.7-8.91,12.46c-3.87,3.76-15.07,5.69-18.05,13.43
				c-2.98,7.74,2.46,19.7,9.46,16.76c11.49-4.83,34.69-24.17,34.69-24.17S334.69,727.73,327.35,717.52z"/>
			<path class="st2" d="M440.67,532.57c-7.32,10-19.56,22.74-23.32,30.68c-0.03-0.02-12.53-2.07-26.09,0
				c-15.08-4.76-16.99-4.9-22.66,3.25c-5.04,7.25-6.13,18.54,0.31,25.29c4.41,4.62,26.67,1.76,29.72-2.03
				c8.26,5.11,23.29-0.47,26.88-5.51c2.63,2.9,8.32-0.34,7.98-4.52c4.79-10.67,14.97-27.84,19.18-39.14
				C450.87,538.05,446.41,530.89,440.67,532.57z"/>
			<g>
				<path class="st17" d="M433.96,490.34c-3.96-5.03-7.52-9.58-12.17-13.79c-1.41-1.27-1.83-0.84-0.58,0.62
					c3.83,4.43,7.55,8.99,11.08,13.61c4.22,5.54,8.73,11.85,12.02,17.41c0.46,0.78,1.35,0.31,1.06-0.57
					C443.31,501.35,438.01,495.47,433.96,490.34z"/>
				<path class="st17" d="M419.33,488.18c-1.01-0.74-1.73-0.03-0.93,0.9c2.92,3.43,7.3,7.26,10.24,10.66
					c3.86,4.45,7.05,8.97,9.7,13.71c0.34,0.61,1.03-0.18,0.88-0.81C438,507.43,423.73,491.37,419.33,488.18z"/>
			</g>
		</g>
	</g>
	<g>
		<g>
			<path class="st10" d="M81.55,565.71c0,0-1.65,4.8-2.1,6.97c-0.45,2.18-0.15,4.15,4.05,6.01c4.2,1.86,7.65,0,7.65,0
				s1.8,1.14,5.25,0.83c3.45-0.32,9.63-5.41,11.71-7.66c3.88-4.2,0.43-7.2-3.77-7.95c-4.2-0.75-11.49,2.7-11.49,2.7L81.55,565.71z"
				/>
			<path class="st4" d="M95.84,572.49l-3-5.87c0,0,2.08-1.13,2.99-1.42c3.42-1.12,6.37-1.38,6.37-1.38s3.94,1.26,1.95,4.38
				C101.83,571.81,95.84,572.49,95.84,572.49z"/>
			<path class="st2" d="M96.51,564.98c0.67,0.25,2.37,1.48,3.53,4.06c1.38,3.06,1.33,5.53,2.91,4.43c1.58-1.1,0.56-4.18-0.83-6.43
				c-1.4-2.25-2.83-2.76-2.83-2.76L96.51,564.98z"/>
		</g>
		<g>
			<path class="st10" d="M105.7,589.22c0,3.54,6.82,8.18,12.4,1.96c14.86-3.58,16.5-9.05,17.48-12.21c1.07-3.48-3.4-8.58-11.79-5.56
				c-9.42,3.4-14.79,4.86-15.77,4.44C107.6,580.59,105.7,584.71,105.7,589.22z"/>
			<path class="st4" d="M121.14,584c0,0,6.84-2.21,9.05-4.74c2.21-2.54,0.63-6.64-3.71-6.57c-4.34,0.06-9.64,5.14-9.64,5.14
				s2.25,0.64,2.83,1.14C122.14,581.11,121.14,584,121.14,584z"/>
			<path class="st2" d="M120.71,574.83c0.03,0.28,2.86,1.53,4.02,4.1c1.38,3.06,1.33,5.53,2.91,4.43c1.58-1.1,0.56-4.18-0.83-6.43
				c-1.4-2.25-3.91-3.16-3.91-3.16L120.71,574.83z"/>
		</g>
		<path class="st19" d="M78.9,503.02c-4.4,8.42-5.31,18.67,3.55,25.49c1.2,6.92,3.69,9.28,7.44,13.23
			c-5.01,8.07-6.1,13.64-8.34,23.98c1.95,4.98,8.25,6.45,12.58,4.15c4.68-8.99,5.37-13.34,10.24-21.73
			c4.87-8.39,8.29-38.67,3.04-47.8C102.16,491.2,87.31,486.9,78.9,503.02z"/>
		<path class="st2" d="M114.21,494.36c0,0,8.47,12.86,11.21,28.12c2.74,15.26-0.38,18.66-1.68,24.59c0.55,3.45,0.77,4.7,0,8.6
			c-1.9,9.61-2.9,21.99-2.9,21.99s-4.57,8.4-13.37,1.7c-2.4-5.9-4.65-14.6-3.53-18.48c0.56-1.93,2.8-8.21,2.8-8.21
			s-4.68-7.2-7.4-19.99c-3.73-0.8-12.4-4.47-13.99-12c-1.57-7.41,1.4-22.19,1.4-22.19L114.21,494.36z"/>
		<path class="st18" d="M123.74,463.91c-3.21-0.3-13.31-11.38-8.14,3.06c5.16,14.44,14.33,22.01,14.33,22.01s4.31-3.22,5.24-17.07
			c0.93-13.85,3.71-31.05-1.84-34.75c-5.55-3.7-13.25,1.89-11.26,5.84c1.67,3.32,3.35,3.53,6.07,4.92
			C125.93,453.71,123.74,463.91,123.74,463.91z"/>
		<path class="st10" d="M78.26,462.27c0.55-4.75,2.2-20.2,9.06-22.74c2.25-0.83,3.37,0,7.58,2.54c-4.88,11.97,5.17,12.7,14.1,9.62
			c3.84,2.29,8.23,4.16,11.29,7.54c7.06,7.81,1.53,18.26-1.05,26.71c-1.18,3.87-1.37,7.46-0.32,11.55c0.73,2.85,1.59,5.52,2.29,8.93
			c-3.28,4.67-13.45,9.42-16.07,9.67c-16.05,1.52-24.92-6.38-26.24-13.07c-0.96-4.87,1.95-9.93,1.17-17.34
			C79.11,476.65,77.74,466.74,78.26,462.27z"/>
		<path class="st16" d="M93.85,444.19c1.74-3.72,4.34-8.25,6.29-11.52c-0.11-1.45-0.11-2.81,0.02-3.95
			c0.83-7.71,6.94-15.54,14.64-14.72c8.5-1.22,14.18,7.39,13.49,15.38c-0.44,5.12-2.98,9.73-6.23,13.61
			c-2.59,3.1-6.76,8.07-11.39,7.28c-0.48-0.08-0.94-0.21-1.38-0.37l-0.3,1.79c0,0-6.77,4.04-11.25,3.22
			C88.94,453.31,92.41,447.28,93.85,444.19z"/>
		<path class="st15" d="M96.31,421.83c1.23-9.34,9.46-14.21,18.48-14.52c3.18-0.11,13.41,2.53,14.56,7.08
			c5.72,1.53,13.22,6.51,12.86,13.12c-0.23,4.25-5.38,4.82-6.41,4.49c2.83,3.8,1.67,8.22-2.22,9.65
			c-5.47,2.01-9.81-5.32-12.26-10.83c-1.58,6.25-14.75,10.72-20.43,10.83c-3.05,0.06-4.79-1.87-5.14-5.93
			C95.39,431.68,95.79,425.78,96.31,421.83z"/>
		<path class="st16" d="M120.38,435.27c0,0,1.05-5.55-3-5.4c-4.05,0.15-5.45,7.3-3.18,9.35
			C116.48,441.27,120.38,435.27,120.38,435.27z"/>
		<path class="st16" d="M115.89,455.66c3.69,0.22,6.12,6.25,9.52,10.65c3.4,4.4,8.46,9.94,8.78,12.97c0.32,3.02-0.88,5.34-1.68,7.68
			c-0.8,2.34-2.4,3.5-6.4,2.02c-4-1.48-15.59-11.07-17.59-19.07C106.54,461.91,111.89,455.41,115.89,455.66z"/>
		<path class="st9" d="M114.15,497.6c0,0-3.43,5.64-10.39,5.83c-6.97,0.19-9.21,0-9.21,0s4.8-2.91,9.21-4.25
			C108.17,497.85,114.15,497.6,114.15,497.6z"/>
	</g>
</g>
</svg>
