<?xml version="1.0" encoding="utf-8"?>
<!-- Generator: Adobe Illustrator 23.0.0, SVG Export Plug-In . SVG Version: 6.00 Build 0)  -->
<svg version="1.1" id="Layer_1" xmlns="http://www.w3.org/2000/svg" xmlns:xlink="http://www.w3.org/1999/xlink" x="0px" y="0px"
	 viewBox="0 0 336 140" style="enable-background:new 0 0 336 140;" xml:space="preserve">
<style type="text/css">
	.st0{fill:none;}
	.st1{fill:#F55D3E;}
</style>
<path class="st0" d="M941.43,554.12H424.57c-7.77,0-14.07-6.3-14.07-14.07V228.19c0-7.77,6.3-14.07,14.07-14.07h516.87
	c7.77,0,14.07,6.3,14.07,14.07v311.87C955.5,547.83,949.2,554.12,941.43,554.12z"/>
<path class="st1" d="M0,0c0,0,0,109.06,0,112.63c2.8,1.8,5.65,3.52,8.55,5.16c29.3,16.62,63.11,24.99,96.74,20.64
	c16.31-2.11,32.29-7.09,46.64-15.17c14.23-8.01,25.58-19.46,37.73-30.18c6.16-5.43,12.6-10.61,19.81-14.57
	c8.08-4.44,16.8-6.72,25.96-7.46c9.68-0.78,19.42-0.25,29.1-0.99c8.12-0.62,16.02-2.36,23.52-5.58
	C314.66,53.08,331.1,27.69,335.59,0C328.74,0,0,0,0,0z"/>
</svg>
